solid Exported from Blender-2.79 (sub 0)
facet normal -1.000000 0.000000 0.000000
outer loop
vertex -1.000000 -1.000000 -1.000000
vertex -1.000000 -1.000000 2.000000
vertex -1.000000 1.000000 1.000000
endloop
endfacet
facet normal -1.000000 0.000000 0.000000
outer loop
vertex -1.000000 1.000000 1.000000
vertex -1.000000 1.000000 -1.000000
vertex -1.000000 -1.000000 -1.000000
endloop
endfacet
facet normal 0.000000 1.000000 0.000000
outer loop
vertex -1.000000 1.000000 -1.000000
vertex -1.000000 1.000000 1.000000
vertex 1.000000 1.000000 1.000000
endloop
endfacet
facet normal 0.000000 1.000000 0.000000
outer loop
vertex 1.000000 1.000000 1.000000
vertex 1.000000 1.000000 -1.000000
vertex -1.000000 1.000000 -1.000000
endloop
endfacet
facet normal 1.000000 0.000000 0.000000
outer loop
vertex 1.000000 1.000000 -1.000000
vertex 1.000000 1.000000 1.000000
vertex 1.000000 -1.000000 2.000000
endloop
endfacet
facet normal 1.000000 0.000000 0.000000
outer loop
vertex 1.000000 -1.000000 2.000000
vertex 1.000000 -1.000000 -1.000000
vertex 1.000000 1.000000 -1.000000
endloop
endfacet
facet normal 0.000000 -1.000000 0.000000
outer loop
vertex -1.000000 -1.000000 2.000000
vertex -1.000000 -1.000000 -1.000000
vertex 1.000000 -1.000000 -1.000000
endloop
endfacet
facet normal 0.000000 -1.000000 0.000000
outer loop
vertex 1.000000 -1.000000 -1.000000
vertex 1.000000 -1.000000 2.000000
vertex -1.000000 -1.000000 2.000000
endloop
endfacet
facet normal 0.000000 0.000000 -1.000000
outer loop
vertex 1.000000 -1.000000 -1.000000
vertex -1.000000 -1.000000 -1.000000
vertex -1.000000 1.000000 -1.000000
endloop
endfacet
facet normal 0.000000 0.000000 -1.000000
outer loop
vertex -1.000000 1.000000 -1.000000
vertex 1.000000 1.000000 -1.000000
vertex 1.000000 -1.000000 -1.000000
endloop
endfacet
facet normal 0.000000 0.447214 0.894427
outer loop
vertex 1.000000 1.000000 1.000000
vertex -1.000000 1.000000 1.000000
vertex -1.000000 -1.000000 2.000000
endloop
endfacet
facet normal 0.000000 0.447214 0.894427
outer loop
vertex -1.000000 -1.000000 2.000000
vertex 1.000000 -1.000000 2.000000
vertex 1.000000 1.000000 1.000000
endloop
endfacet
endsolid Exported from Blender-2.79 (sub 0)
